<svg width="11" height="12" viewBox="0 0 11 12" fill="none" xmlns="http://www.w3.org/2000/svg">
<path d="M6.86225 8.8047C6.6019 8.54435 6.6019 8.12224 6.86225 7.86189C7.1226 7.60154 7.54471 7.60154 7.80506 7.86189L10.4717 10.5286C10.7321 10.7889 10.7321 11.211 10.4717 11.4714C10.2114 11.7317 9.78927 11.7317 9.52892 11.4714L6.86225 8.8047Z" fill="#1B3764"/>
<path fill-rule="evenodd" clip-rule="evenodd" d="M0 4.99998C0 7.57731 2.08934 9.66665 4.66667 9.66665C7.244 9.66665 9.33333 7.57731 9.33333 4.99998C9.33333 2.42265 7.244 0.333313 4.66667 0.333313C2.08934 0.333313 0 2.42265 0 4.99998ZM7.99998 4.99998C7.99998 6.84093 6.50759 8.33332 4.66664 8.33332C2.82569 8.33332 1.33331 6.84093 1.33331 4.99998C1.33331 3.15903 2.82569 1.66665 4.66664 1.66665C6.50759 1.66665 7.99998 3.15903 7.99998 4.99998Z" fill="#1B3764"/>
</svg>
